<?xml version="1.0" encoding="UTF-8" standalone="no"?><!DOCTYPE svg PUBLIC "-//W3C//DTD SVG 1.1//EN" "http://www.w3.org/Graphics/SVG/1.1/DTD/svg11.dtd"><svg width="100%" height="100%" viewBox="0 0 942 230" version="1.1" xmlns="http://www.w3.org/2000/svg" xmlns:xlink="http://www.w3.org/1999/xlink" xml:space="preserve" xmlns:serif="http://www.serif.com/" style="fill-rule:evenodd;clip-rule:evenodd;stroke-linejoin:round;stroke-miterlimit:2;"><g id="new"><g><rect x="104" y="3.5" width="22" height="144" style="fill:#5773ff;"/><rect x="78" y="32.393" width="22" height="115.107" style="fill:#5773ff;"/><rect x="52" y="61.08" width="22" height="86.42" style="fill:#5773ff;"/><rect x="26" y="89.947" width="22" height="57.553" style="fill:#5773ff;"/><rect x="0" y="118.693" width="22" height="28.807" style="fill:#5773ff;"/></g><g><path d="M189.483,229.5l-22,-0l-63.483,-78l22,0l63.483,78Z" style="fill:#a3b3ff;"/><path d="M150.745,213.849l-22,0l-50.745,-62.349l22,0l50.745,62.349Z" style="fill:#a3b3ff;"/><path d="M112.099,198.311l-22,-0l-38.099,-46.811l22,0l38.099,46.811Z" style="fill:#a3b3ff;"/><path d="M73.373,182.675l-22,-0l-25.373,-31.175l22,-0l25.373,31.175Z" style="fill:#a3b3ff;"/><path d="M34.7,167.104l-22,-0l-12.7,-15.604l22,-0l12.7,15.604Z" style="fill:#a3b3ff;"/></g></g><text x="111.37px" y="147.501px" style="font-family:'LucidaConsole', 'Lucida Console', monospace;font-stretch:semi-condensed;font-size:229.895px;fill:#434343;">DASQIA</text></svg>